<svg xmlns="http://www.w3.org/2000/svg" viewBox="0 0 512 512" width="512" height="512" role="img" aria-label="تدبّر">
  <defs>
    <linearGradient id="bg" x1="0%" y1="0%" x2="100%" y2="100%">
      <stop offset="0%" stop-color="#1f6f52" />
      <stop offset="100%" stop-color="#184f3c" />
    </linearGradient>
  </defs>

  <!-- Background: rounded square, deep green -->
  <rect x="0" y="0" width="512" height="512" rx="112" fill="url(#bg)" />

  <!-- Subtle gold corner flourish, echoes the site's ornamental brackets -->
  <g stroke="#e0b354" stroke-width="6" fill="none" opacity="0.55" stroke-linecap="round">
    <path d="M 96 140 Q 96 96 140 96" />
    <path d="M 416 140 Q 416 96 372 96" />
    <path d="M 96 372 Q 96 416 140 416" />
    <path d="M 416 372 Q 416 416 372 416" />
  </g>

  <!-- Gold "ت" glyph, centered -->
  <g fill="#e0b354">
    <!-- bowl of the letter taa -->
    <path d="M 146 296
             C 146 234 196 188 258 188
             C 320 188 366 226 366 282
             C 366 332 330 366 274 366
             C 258 366 246 354 246 338
             C 246 322 258 310 274 310
             C 298 310 314 296 314 278
             C 314 254 292 236 258 236
             C 220 236 196 258 196 296
             C 196 336 228 366 272 366
             L 272 366
             " />
    <!-- two dots above, characteristic of ت -->
    <circle cx="222" cy="150" r="20" />
    <circle cx="298" cy="150" r="20" />
  </g>
</svg>
